<svg id="OBJECTS" xmlns="http://www.w3.org/2000/svg" xmlns:xlink="http://www.w3.org/1999/xlink" viewBox="0 0 585.12 396.89"><defs><style>.cls-1{fill:#cedbed;}.cls-2{fill:url(#linear-gradient);}.cls-16,.cls-20,.cls-22,.cls-24,.cls-3,.cls-30,.cls-41,.cls-48,.cls-5,.cls-50,.cls-51,.cls-53,.cls-55,.cls-73,.cls-78{fill:none;}.cls-3,.cls-5,.cls-53,.cls-55{stroke:#1656bd;}.cls-16,.cls-22,.cls-24,.cls-3,.cls-30,.cls-41,.cls-5,.cls-51,.cls-53,.cls-73,.cls-78{stroke-miterlimit:10;}.cls-3{stroke-width:0.74px;}.cls-4{fill:url(#linear-gradient-2);}.cls-5{stroke-width:0.84px;}.cls-6{fill:url(#linear-gradient-3);}.cls-10,.cls-7,.cls-8,.cls-9{opacity:0.63;}.cls-7{fill:url(#linear-gradient-4);}.cls-8{fill:url(#linear-gradient-5);}.cls-9{fill:url(#linear-gradient-6);}.cls-10{fill:url(#linear-gradient-7);}.cls-11{fill:url(#linear-gradient-8);}.cls-12,.cls-26,.cls-28,.cls-31,.cls-34,.cls-35,.cls-36,.cls-39,.cls-47,.cls-49,.cls-52,.cls-54,.cls-56,.cls-72,.cls-77{opacity:0.42;}.cls-12{fill:url(#linear-gradient-9);}.cls-13{fill:url(#linear-gradient-10);}.cls-14{fill:#fff;}.cls-15{fill:#5a89d6;}.cls-16{stroke:#fff;stroke-width:1.29px;}.cls-17{fill:#1656bd;}.cls-18{fill:#ff8a8a;}.cls-19{fill:#ccc;}.cls-20,.cls-41{stroke:#cedbed;}.cls-20,.cls-48,.cls-50,.cls-55{stroke-linecap:round;stroke-linejoin:round;}.cls-20{stroke-width:2.05px;}.cls-21{fill:url(#linear-gradient-11);}.cls-22,.cls-24,.cls-30,.cls-50,.cls-51{stroke:#0c3069;}.cls-22{stroke-width:0.86px;}.cls-23{fill:url(#linear-gradient-12);}.cls-24{stroke-width:0.94px;}.cls-25{fill:url(#linear-gradient-13);}.cls-26{fill:url(#linear-gradient-14);}.cls-27{fill:url(#linear-gradient-15);}.cls-28{fill:url(#linear-gradient-16);}.cls-29{fill:url(#linear-gradient-17);}.cls-30{stroke-width:0.88px;}.cls-31{fill:url(#linear-gradient-18);}.cls-32{fill:url(#linear-gradient-19);}.cls-33{fill:url(#linear-gradient-20);}.cls-34{fill:url(#linear-gradient-21);}.cls-35{fill:url(#linear-gradient-22);}.cls-36{fill:url(#linear-gradient-23);}.cls-37{fill:url(#linear-gradient-24);}.cls-38{fill:url(#linear-gradient-25);}.cls-39{fill:url(#linear-gradient-26);}.cls-40{fill:#3d7eeb;}.cls-41{stroke-width:0.7px;}.cls-42{fill:#7af;}.cls-43{fill:#ff6d6d;}.cls-44{fill:#0c3069;}.cls-45{fill:url(#linear-gradient-27);}.cls-46{fill:#ffa526;}.cls-47{fill:url(#linear-gradient-28);}.cls-48{stroke:#786337;}.cls-48,.cls-50,.cls-55{stroke-width:0.5px;}.cls-49{fill:url(#linear-gradient-29);}.cls-51,.cls-53{stroke-width:0.81px;}.cls-52{fill:url(#linear-gradient-30);}.cls-54{fill:url(#linear-gradient-31);}.cls-56{fill:url(#linear-gradient-32);}.cls-57{fill:#a13d18;}.cls-58{fill:#ff6026;}.cls-59{fill:url(#linear-gradient-33);}.cls-60{fill:url(#linear-gradient-34);}.cls-61{fill:url(#linear-gradient-35);}.cls-62{fill:#a1c1ed;}.cls-63{fill:url(#linear-gradient-36);}.cls-64{fill:url(#linear-gradient-37);}.cls-65{fill:url(#linear-gradient-38);}.cls-66{fill:url(#linear-gradient-39);}.cls-67{fill:url(#linear-gradient-40);}.cls-68,.cls-69{opacity:0.22;}.cls-68{fill:url(#linear-gradient-41);}.cls-69{fill:url(#linear-gradient-42);}.cls-70{fill:url(#linear-gradient-43);}.cls-71{fill:url(#linear-gradient-44);}.cls-72{fill:url(#linear-gradient-45);}.cls-73{stroke:#8c1919;stroke-width:0.8px;}.cls-74{fill:#4a0d0d;}.cls-75{fill:#701414;}.cls-76{fill:url(#linear-gradient-46);}.cls-77{fill:url(#linear-gradient-47);}.cls-78{stroke:#3d7eeb;stroke-width:1.6px;}</style><linearGradient id="linear-gradient" x1="319.77" y1="218.14" x2="220.43" y2="406.81" gradientUnits="userSpaceOnUse"><stop offset="0.05" stop-color="#a1c1ed"/><stop offset="1" stop-color="#a1c1ed" stop-opacity="0"/></linearGradient><linearGradient id="linear-gradient-2" x1="452.32" y1="172" x2="547.66" y2="474.66" xlink:href="#linear-gradient"/><linearGradient id="linear-gradient-3" x1="369.95" y1="431.05" x2="369.95" y2="256.23" gradientUnits="userSpaceOnUse"><stop offset="0" stop-color="#6ab883"/><stop offset="1" stop-color="#dbb883"/></linearGradient><linearGradient id="linear-gradient-4" x1="468.08" y1="294.56" x2="468.08" y2="428.56" gradientUnits="userSpaceOnUse"><stop offset="0.01" stop-color="#187d38"/><stop offset="0.2" stop-color="#187d38" stop-opacity="0.97"/><stop offset="0.38" stop-color="#187d38" stop-opacity="0.89"/><stop offset="0.55" stop-color="#187d38" stop-opacity="0.74"/><stop offset="0.71" stop-color="#187d38" stop-opacity="0.54"/><stop offset="0.86" stop-color="#187d38" stop-opacity="0.28"/><stop offset="1" stop-color="#187d38" stop-opacity="0"/></linearGradient><linearGradient id="linear-gradient-5" x1="316.64" y1="325.72" x2="316.64" y2="399.61" xlink:href="#linear-gradient-4"/><linearGradient id="linear-gradient-6" x1="566.13" y1="448.76" x2="566.13" y2="191.05" xlink:href="#linear-gradient-4"/><linearGradient id="linear-gradient-7" x1="162.98" y1="443.81" x2="162.98" y2="283.29" xlink:href="#linear-gradient-4"/><linearGradient id="linear-gradient-8" x1="307.57" y1="355.64" x2="307.57" y2="275.15" gradientUnits="userSpaceOnUse"><stop offset="0" stop-color="#6ab883"/><stop offset="1" stop-color="#1858bc"/></linearGradient><linearGradient id="linear-gradient-9" x1="390.96" y1="313.51" x2="390.96" y2="377.34" gradientUnits="userSpaceOnUse"><stop offset="0"/><stop offset="1" stop-opacity="0"/></linearGradient><linearGradient id="linear-gradient-10" x1="307.57" y1="49" x2="307.57" y2="345.86" xlink:href="#linear-gradient-8"/><linearGradient id="linear-gradient-11" x1="95.92" y1="301.67" x2="145.91" y2="301.67" gradientUnits="userSpaceOnUse"><stop offset="0.04" stop-color="#ffa526"/><stop offset="1" stop-color="#ff6026"/></linearGradient><linearGradient id="linear-gradient-12" x1="148.23" y1="306.77" x2="169.21" y2="306.77" xlink:href="#linear-gradient-11"/><linearGradient id="linear-gradient-13" x1="658.04" y1="277.42" x2="600.37" y2="378.09" xlink:href="#linear-gradient-11"/><linearGradient id="linear-gradient-14" x1="636.91" y1="319.83" x2="590.91" y2="381.08" gradientUnits="userSpaceOnUse"><stop offset="0"/><stop offset="0.93" stop-opacity="0"/></linearGradient><linearGradient id="linear-gradient-15" x1="614.54" y1="288.34" x2="590.87" y2="341.18" xlink:href="#linear-gradient-11"/><linearGradient id="linear-gradient-16" x1="609.32" y1="303.49" x2="577.32" y2="367.66" xlink:href="#linear-gradient-14"/><linearGradient id="linear-gradient-17" x1="82.95" y1="339.94" x2="129.61" y2="339.94" xlink:href="#linear-gradient-11"/><linearGradient id="linear-gradient-18" x1="229.14" y1="31.22" x2="229.14" y2="80.08" xlink:href="#linear-gradient-14"/><linearGradient id="linear-gradient-19" x1="228.21" y1="29.67" x2="228.21" y2="78.52" xlink:href="#linear-gradient-11"/><linearGradient id="linear-gradient-20" x1="561.2" y1="423.78" x2="561.2" y2="361.46" xlink:href="#linear-gradient-3"/><linearGradient id="linear-gradient-21" x1="117.19" y1="326.21" x2="145.91" y2="326.21" xlink:href="#linear-gradient-14"/><linearGradient id="linear-gradient-22" x1="157.17" y1="290.05" x2="157.17" y2="355.66" xlink:href="#linear-gradient-14"/><linearGradient id="linear-gradient-23" x1="112.34" y1="351.97" x2="129.61" y2="351.97" xlink:href="#linear-gradient-14"/><linearGradient id="linear-gradient-24" x1="106.05" y1="361.16" x2="112.38" y2="361.16" xlink:href="#linear-gradient-11"/><linearGradient id="linear-gradient-25" x1="169.21" y1="446.66" x2="169.21" y2="342.41" xlink:href="#linear-gradient-3"/><linearGradient id="linear-gradient-26" x1="124.29" y1="78.22" x2="124.29" y2="142.47" xlink:href="#linear-gradient-14"/><linearGradient id="linear-gradient-27" x1="220.07" y1="191.39" x2="230.34" y2="191.39" gradientUnits="userSpaceOnUse"><stop offset="0" stop-color="#f04f4f"/><stop offset="0.15" stop-color="#f04f4f" stop-opacity="0.99"/><stop offset="0.28" stop-color="#f04f4f" stop-opacity="0.94"/><stop offset="0.4" stop-color="#f04f4f" stop-opacity="0.86"/><stop offset="0.53" stop-color="#f04f4f" stop-opacity="0.76"/><stop offset="0.65" stop-color="#f04f4f" stop-opacity="0.62"/><stop offset="0.76" stop-color="#f04f4f" stop-opacity="0.45"/><stop offset="0.88" stop-color="#f04f4f" stop-opacity="0.25"/><stop offset="0.99" stop-color="#f04f4f" stop-opacity="0.02"/><stop offset="1" stop-color="#f04f4f" stop-opacity="0"/></linearGradient><linearGradient id="linear-gradient-28" x1="122.41" y1="215.27" x2="149.38" y2="215.27" xlink:href="#linear-gradient-9"/><linearGradient id="linear-gradient-29" x1="244.73" y1="237.57" x2="259.62" y2="237.57" xlink:href="#linear-gradient-14"/><linearGradient id="linear-gradient-30" x1="217.27" y1="368.95" x2="248.65" y2="368.95" xlink:href="#linear-gradient-9"/><linearGradient id="linear-gradient-31" x1="181.74" y1="251.38" x2="233.49" y2="251.88" xlink:href="#linear-gradient-9"/><linearGradient id="linear-gradient-32" x1="216.15" y1="272.13" x2="209.65" y2="291.04" xlink:href="#linear-gradient-9"/><linearGradient id="linear-gradient-33" x1="309.85" y1="226.26" x2="296.5" y2="265.58" gradientUnits="userSpaceOnUse"><stop offset="0" stop-color="#ff8a8a"/><stop offset="1" stop-color="#ff8a8a" stop-opacity="0"/></linearGradient><linearGradient id="linear-gradient-34" x1="269.81" y1="254.86" x2="320.17" y2="254.86" xlink:href="#linear-gradient"/><linearGradient id="linear-gradient-35" x1="269.4" y1="266.47" x2="319.32" y2="266.47" xlink:href="#linear-gradient"/><linearGradient id="linear-gradient-36" x1="545.62" y1="71.92" x2="545.62" y2="113.89" gradientUnits="userSpaceOnUse"><stop offset="0.05" stop-color="#a1c1ed"/><stop offset="1" stop-color="#72a6ed"/></linearGradient><linearGradient id="linear-gradient-37" x1="463.88" y1="185.46" x2="505.91" y2="185.46" xlink:href="#linear-gradient"/><linearGradient id="linear-gradient-38" x1="463.79" y1="206.83" x2="514.16" y2="206.83" gradientTransform="translate(147.59 611.68) rotate(-73.79)" xlink:href="#linear-gradient"/><linearGradient id="linear-gradient-39" x1="463.39" y1="218.44" x2="513.3" y2="218.44" gradientTransform="translate(147.59 611.68) rotate(-73.79)" xlink:href="#linear-gradient"/><linearGradient id="linear-gradient-40" x1="497.74" y1="409.32" x2="510.29" y2="409.32" xlink:href="#linear-gradient-27"/><linearGradient id="linear-gradient-41" x1="546.29" y1="362.57" x2="588.35" y2="362.57" xlink:href="#linear-gradient-14"/><linearGradient id="linear-gradient-42" x1="552.92" y1="269.6" x2="554.92" y2="323.26" xlink:href="#linear-gradient-14"/><linearGradient id="linear-gradient-43" x1="575.35" y1="244.26" x2="585.87" y2="244.26" xlink:href="#linear-gradient-27"/><linearGradient id="linear-gradient-44" x1="544.6" y1="216.19" x2="558.19" y2="216.19" xlink:href="#linear-gradient-27"/><linearGradient id="linear-gradient-45" x1="561.83" y1="220.72" x2="561.83" y2="256.57" xlink:href="#linear-gradient-14"/><linearGradient id="linear-gradient-46" x1="570.78" y1="408.07" x2="581.66" y2="408.07" xlink:href="#linear-gradient-27"/><linearGradient id="linear-gradient-47" x1="602.17" y1="141.3" x2="602.17" y2="225.34" xlink:href="#linear-gradient-14"/></defs><title>not-found</title><ellipse class="cls-1" cx="307.56" cy="368.79" rx="68.27" ry="4.33"/><path class="cls-1" d="M156.72,397.93S129.61,299,129.61,240.38c0-73.21,43.21-116,180.15-146S597.11,41.06,636.4,109.06s-25.07,288.87-25.07,288.87Z" transform="translate(-82.95 -51.15)"/><path class="cls-2" d="M298.71,285c-29.07-100.74-97.91-67.66-97.91-67.66-12.76-28-35.17-39.14-53.06-43.49-12.8,18.95-18.13,40.88-18.13,66.55,0,58.66,27.11,157.55,27.11,157.55H421.14C403.09,297,298.71,285,298.71,285Z" transform="translate(-82.95 -51.15)"/><path class="cls-3" d="M176.91,304.58s13.12-64-5-60.65c-17.93,3.34-5.34,64.33-5.34,64.33Z" transform="translate(-82.95 -51.15)"/><path class="cls-3" d="M171.89,243.92s-1.14,41.92,0,62.44" transform="translate(-82.95 -51.15)"/><path class="cls-3" d="M159.06,308.11s-10-64.59-25.84-55.1c-15.64,9.38,17.41,62.16,17.41,62.16Z" transform="translate(-82.95 -51.15)"/><path class="cls-3" d="M133.21,253S146.76,292.7,155,311.53" transform="translate(-82.95 -51.15)"/><path class="cls-4" d="M611.33,397.93s51.4-176.4,34.28-262.45c-19.9,2.93-58.29,13.72-69,53.44a18.52,18.52,0,0,1-14.6,13.4c-28.18,5.07-95.63,23.09-108.82,80.76,0,0-120.53,16.32-134.53,114.85Z" transform="translate(-82.95 -51.15)"/><path class="cls-3" d="M600.69,316.4s19.88-62.27,1.48-60.84C584,257,590,318.94,590,318.94Z" transform="translate(-82.95 -51.15)"/><path class="cls-3" d="M602.17,255.56s-5.61,41.56-6.68,62.08" transform="translate(-82.95 -51.15)"/><path class="cls-5" d="M619,322.14s37.44-68.56,16.67-68.68c-20.52-.12-29.17,70.55-29.17,70.55Z" transform="translate(-82.95 -51.15)"/><path class="cls-5" d="M635.65,253.47S619.16,299.94,612.9,323" transform="translate(-82.95 -51.15)"/><path class="cls-6" d="M633.2,376.39s-4.37-78.35-30.75-50.64c0,0-1.94-50.52-23.35-56.95-20.12-6-38.6,36.25-38.6,36.25s-81.86-13.63-112.7,46.68c0,0-45.14-26.66-76,0,0,0-9.51-58.12-22.33-58.12s-15.56,32.14-15.56,32.14-48-37.59-83.79-11.48c0,0-9.61-53.69-32.2-48.64-12.1,2.71-20,32.41-20,32.41s-31.29-5.67-36.26,48.67c0,0-10.55-.91-14.7,16.13-33.3-12.63-42.86,35.08-42.86,35.08H655.78S655.5,382.4,633.2,376.39Z" transform="translate(-82.95 -51.15)"/><path class="cls-7" d="M416.88,397.93s7.06-27.29,11.31-27.58,11.2,17.38,11.2,17.38,3.37-36.26,11.68-36.3,15.14,13.12,15.14,13.12,7.24-12.15,18.09-10c0,0,4.82-16.83,9.65-16.83s10.1,41.21,10.1,41.21,12.41,2.12,15.22,18.79Z" transform="translate(-82.95 -51.15)"/><path class="cls-8" d="M264.89,397.93s-5-31.54,0-31.54,11.67,11.67,11.67,11.67-2.17-48.81,9.25-49.24,27.56,31.36,27.56,31.36,15.45-20.21,25.53,8.77c0,0,31.11,5.19,31.72,29Z" transform="translate(-82.95 -51.15)"/><path class="cls-9" d="M639.47,397.93l1.9-18.49a44.11,44.11,0,0,0-8.17-3s-4.37-78.35-30.75-50.64c0,0-1.85-48.25-21.93-56.43-28.8,6.17-35.24,59.49-35.24,59.49s-2.17-11.42-7.59-13.1-19.42,43.69-19.42,43.69c-10.62-4-23.7,28.65-27.39,38.54Z" transform="translate(-82.95 -51.15)"/><path class="cls-10" d="M218.88,362.64c-3.47-22-21.77-11.45-21.77-11.45s-4.37-20.87-12.14-23.3-9.71,3.73-9.71,3.73c-1-16.32-8.59-25.27-13.75-29.51-8.4,5.43-17.36,17.61-19.84,44.61,0,0-10.55-.91-14.7,16.13-33.3-12.63-42.86,35.08-42.86,35.08H241.85C234.38,358.56,218.88,362.64,218.88,362.64Z" transform="translate(-82.95 -51.15)"/><polygon class="cls-11" points="341.37 366.29 273.76 366.29 277.68 272.1 337.46 272.1 341.37 366.29"/><path class="cls-12" d="M359.85,341.87c3,2.44,9.69,5.93,23.43,7.07,14.87,1.23,29.74,6.55,38.78,14.14l-1.65-39.83H360.63Z" transform="translate(-82.95 -51.15)"/><rect class="cls-13" x="172.84" y="83.33" width="269.45" height="199.11" rx="13.73" ry="13.73"/><rect class="cls-14" x="183.69" y="94.4" width="247.75" height="160.79" rx="5.99" ry="5.99"/><rect class="cls-1" x="196.74" y="109.39" width="221.66" height="36.96"/><rect class="cls-15" x="196.74" y="109.39" width="36.96" height="36.96"/><circle class="cls-16" cx="296.92" cy="176.87" r="6.54" transform="translate(-121.05 210.61) rotate(-45)"/><line class="cls-16" x1="218.59" y1="130.34" x2="224.8" y2="136.55"/><circle class="cls-17" cx="285.29" cy="127.87" r="2.87"/><circle class="cls-17" cx="302.79" cy="127.87" r="2.87"/><circle class="cls-17" cx="320.3" cy="127.87" r="2.87"/><circle class="cls-17" cx="337.81" cy="127.87" r="2.87"/><circle class="cls-17" cx="355.31" cy="127.87" r="2.87"/><rect class="cls-18" x="196.74" y="160.56" width="77.03" height="77.03"/><path class="cls-17" d="M375.27,220.3H497.05a4.29,4.29,0,0,0,4.29-4.29h0a4.29,4.29,0,0,0-4.29-4.29H375.27A4.29,4.29,0,0,0,371,216h0A4.29,4.29,0,0,0,375.27,220.3Z" transform="translate(-82.95 -51.15)"/><path class="cls-17" d="M375.27,236.85H431a4.29,4.29,0,0,0,4.29-4.29h0a4.29,4.29,0,0,0-4.29-4.29H375.27a4.29,4.29,0,0,0-4.29,4.29h0A4.29,4.29,0,0,0,375.27,236.85Z" transform="translate(-82.95 -51.15)"/><rect class="cls-19" x="370.98" y="244.53" width="64.28" height="3" transform="translate(723.28 440.92) rotate(180)"/><rect class="cls-19" x="370.98" y="254.83" width="130.37" height="3" transform="translate(789.38 461.52) rotate(180)"/><rect class="cls-19" x="370.98" y="265.13" width="130.37" height="3" transform="translate(789.38 482.12) rotate(180)"/><rect class="cls-19" x="370.98" y="275.43" width="130.37" height="3" transform="translate(789.38 502.72) rotate(180)"/><rect class="cls-19" x="370.98" y="285.74" width="130.37" height="3" transform="translate(789.38 523.32) rotate(180)"/><path class="cls-17" d="M390.52,411c-20.33,0-39,2.43-53.71,6.49a1.23,1.23,0,0,0,.41,2.43h106.6a1.23,1.23,0,0,0,.41-2.43C429.52,413.45,410.85,411,390.52,411Z" transform="translate(-82.95 -51.15)"/><path class="cls-20" d="M114.85,283.73a347.29,347.29,0,0,1-3.24-43.35c0-30,6.62-54.78,20.51-75.71" transform="translate(-82.95 -51.15)"/><path class="cls-20" d="M120.89,283.7a344,344,0,0,1-3.28-43.32c0-35.58,9.65-63.34,30.15-86" transform="translate(-82.95 -51.15)"/><path class="cls-20" d="M126.94,283.73a340.89,340.89,0,0,1-3.32-43.35c0-40.43,13-70.23,40.85-93.78" transform="translate(-82.95 -51.15)"/><path class="cls-20" d="M666.8,165c1.2,30.18-2,67.73-9.59,112.41q-1.29,7.6-2.67,15" transform="translate(-82.95 -51.15)"/><path class="cls-20" d="M660.43,157.22c2.16,30.87-.88,70.71-9.13,119.23q-1.19,7-2.45,13.85" transform="translate(-82.95 -51.15)"/><path class="cls-20" d="M653.52,147.69c4.78,41.39-2.13,96.58-11.18,144.78" transform="translate(-82.95 -51.15)"/><path class="cls-21" d="M145.91,348.15s-13.11-104-42.11-105,31.33,117,31.33,117Z" transform="translate(-82.95 -51.15)"/><path class="cls-22" d="M100.88,243.56s26.17,52.62,39.48,110.78" transform="translate(-82.95 -51.15)"/><path class="cls-23" d="M159.25,265.27c15.19,2,10.24,49.91,3.28,83L151.23,347S140.65,262.82,159.25,265.27Z" transform="translate(-82.95 -51.15)"/><path class="cls-24" d="M159.25,265.27s2.15,34.94-2.48,82.39" transform="translate(-82.95 -51.15)"/><path class="cls-25" d="M595.36,371.73s34.27-99,62.86-94-54.79,108-54.79,108Z" transform="translate(-82.95 -51.15)"/><path class="cls-22" d="M661,278.68s-36.46,46.09-61.48,100.25" transform="translate(-82.95 -51.15)"/><path class="cls-26" d="M624,354.13c-8-.7-12,11.8-12,11.8s6.92-34.17.11-35c-10,21.27-16.78,40.8-16.78,40.8l8.06,14s10.63-13.13,23-30.25A3.24,3.24,0,0,0,624,354.13Z" transform="translate(-82.95 -51.15)"/><path class="cls-27" d="M611.88,284.55c-15-3-25.77,44-29.85,77.57l11.11,2.42S630.28,288.22,611.88,284.55Z" transform="translate(-82.95 -51.15)"/><path class="cls-24" d="M611.88,284.55s-13.29,32.38-24.19,78.8" transform="translate(-82.95 -51.15)"/><path class="cls-28" d="M606.47,333.79C601,339.14,596,350,596,350s7.5-46.79,1-46.93a3.89,3.89,0,0,0-2.11.67c-6.14,16.09-10.58,39.36-12.89,58.37l11.11,2.42S600.08,350.28,606.47,333.79Z" transform="translate(-82.95 -51.15)"/><path class="cls-29" d="M129.61,364.83s-27.41-73-43.58-58.06c-16,14.76,35.45,68.35,35.45,68.35Z" transform="translate(-82.95 -51.15)"/><path class="cls-30" d="M86,306.77s25.47,43.06,39.63,63.06" transform="translate(-82.95 -51.15)"/><circle class="cls-31" cx="229.14" cy="47.92" r="23.34"/><circle class="cls-32" cx="228.21" cy="46.37" r="23.34"/><ellipse class="cls-1" cx="483.18" cy="366.29" rx="82.13" ry="4.33"/><path class="cls-33" d="M497.78,416.47h125.5s3-26,0-26-8,6.5-8,6.5,7-24.11-1-24.8-12,11.8-12,11.8,7-34.56,0-35-16,19.11-16,19.11,7.5-46.79,1-46.93-14,21.85-14,21.85,4.11-38.5-6.45-39.5S545.28,363,545.28,363s-2.28-21.9-9.51-22.58S520.29,390,520.29,390s2.27-10.5-5.12-9S497.78,416.47,497.78,416.47Z" transform="translate(-82.95 -51.15)"/><path class="cls-34" d="M135.13,360.17l10.77-12a448.67,448.67,0,0,0-11.21-55.9c-7,10.39-6.21,47.38-6.21,47.38s-7-17.47-11-17.62h-.27C126.41,343.11,135.13,360.17,135.13,360.17Z" transform="translate(-82.95 -51.15)"/><path class="cls-35" d="M162.53,348.32c1.3-6.21,2.54-12.93,3.58-19.77-1.69-12.27-4.38-26.14-7.86-26.14-6.25,0-5.88,20.62-5.88,20.62s-.84-12.7-4.13-22.45a425.68,425.68,0,0,0,3,46.46Z" transform="translate(-82.95 -51.15)"/><path class="cls-36" d="M114,366.93c4.38,5,7.43,8.19,7.43,8.19l8.14-10.29a315.91,315.91,0,0,0-16.48-36C111.31,339,113.05,358,114,366.93Z" transform="translate(-82.95 -51.15)"/><path class="cls-37" d="M112.38,365c-1.47-3.73-3.49-7.61-5.57-7.68a3.4,3.4,0,0,0-.76.07C108.27,360.16,110.42,362.72,112.38,365Z" transform="translate(-82.95 -51.15)"/><ellipse class="cls-1" cx="86.81" cy="366.29" rx="82.13" ry="4.33"/><path class="cls-38" d="M99.43,416.47H239s-14.72-42.6-20.55-42.26-6.91,16.33-6.91,16.33-1.92-28.67-8.32-28.33-7.87,24.67-7.87,24.67-1.84-36-4.41-36-2.57,17-2.57,17-1.91-27.26-7.75-27.63-7.68,24-7.68,24-3.67-44.61-9.92-44.61-5.88,20.62-5.88,20.62-2.2-33.56-13.6-33.46-10.29,50.06-10.29,50.06-7-17.47-11-17.62c-9.55-.35-2.82,49.85-2.82,49.85s-3.8-14.4-7.84-14.53C101.63,374.2,99.43,416.47,99.43,416.47Z" transform="translate(-82.95 -51.15)"/><polygon class="cls-39" points="167.39 79.57 81.19 79.57 81.19 106.69 127.66 106.69 136.79 118.37 136.79 106.69 167.39 106.69 167.39 79.57"/><polygon class="cls-40" points="164.68 77.23 78.48 77.23 78.48 104.34 124.95 104.34 134.09 116.02 134.09 104.34 164.68 104.34 164.68 77.23"/><rect class="cls-17" x="78.48" y="77.23" width="27.11" height="27.11"/><line class="cls-41" x1="105.59" y1="79.57" x2="105.59" y2="101.99"/><path class="cls-42" d="M215.41,136.31H194.36a1.19,1.19,0,0,1-1.19-1.19h0a1.19,1.19,0,0,1,1.19-1.19h21.05a1.19,1.19,0,0,1,1.19,1.19h0A1.19,1.19,0,0,1,215.41,136.31Z" transform="translate(-82.95 -51.15)"/><path class="cls-42" d="M215.41,140.85H194.36a1.19,1.19,0,0,1-1.19-1.19h0a1.19,1.19,0,0,1,1.19-1.19h21.05a1.19,1.19,0,0,1,1.19,1.19h0A1.19,1.19,0,0,1,215.41,140.85Z" transform="translate(-82.95 -51.15)"/><path class="cls-42" d="M240.09,145.39H194.36a1.19,1.19,0,0,1-1.19-1.19h0a1.19,1.19,0,0,1,1.19-1.19h45.73a1.19,1.19,0,0,1,1.19,1.19h0A1.19,1.19,0,0,1,240.09,145.39Z" transform="translate(-82.95 -51.15)"/><path class="cls-42" d="M240.09,149.93H194.36a1.19,1.19,0,0,1-1.19-1.19h0a1.19,1.19,0,0,1,1.19-1.19h45.73a1.19,1.19,0,0,1,1.19,1.19h0A1.19,1.19,0,0,1,240.09,149.93Z" transform="translate(-82.95 -51.15)"/><ellipse class="cls-1" cx="169.3" cy="386.78" rx="19.28" ry="1.85"/><ellipse class="cls-1" cx="82.69" cy="386.78" rx="19.28" ry="1.85"/><path class="cls-43" d="M246.66,419.56l2,10.39s3.58,3.29,6.37,4.18,6.59,1,7,3.8H240.37a1.83,1.83,0,0,1-1.76-2.35c.51-1.74,1.17-4,1.46-5,.51-1.77-2.15-11-2.15-11Z" transform="translate(-82.95 -51.15)"/><path class="cls-43" d="M176.32,410l-5.24,9.19s.58,4.83,2.12,7.32,4.35,5.05,2.82,7.42l-16.43-14.06a1.83,1.83,0,0,1,.19-2.92l4.36-2.85c1.54-1,5.53-9.77,5.53-9.77Z" transform="translate(-82.95 -51.15)"/><path class="cls-44" d="M213.09,275.4c0,39.4,17.49,96.66,17.49,96.66-2.78,10.89,4.55,49.83,4.55,49.83h13.51c.34-72.8-10-146.48-10-146.48Z" transform="translate(-82.95 -51.15)"/><path class="cls-43" d="M298.4,215.23l3.8-3.29s7.85-9.5,9.12-8.93-1.84,3.23-2.41,4.88.76,3.93-.51,5.76-4.86,2.34-4.86,2.34l-1.6,2Z" transform="translate(-82.95 -51.15)"/><polygon class="cls-44" points="213.37 165.09 215.94 163.02 220.16 167.08 217.42 169.69 213.37 165.09"/><path class="cls-43" d="M236.57,173.25l-1.09,11.36a7.64,7.64,0,0,1-1.51,6.21,1.75,1.75,0,0,1-1.92.64l-1.7-.51-2,18.62L212.21,207,219,190.4s-1.72-9.71-.63-12.67S230.16,167.09,236.57,173.25Z" transform="translate(-82.95 -51.15)"/><path class="cls-45" d="M221.74,184.8l-1.67,2.48A12.51,12.51,0,0,0,229.6,198l.74-7C228,190.24,222.45,187.46,221.74,184.8Z" transform="translate(-82.95 -51.15)"/><path class="cls-46" d="M232.85,205.6l-2.6-1.14V203a1.25,1.25,0,0,0-1.25-1.25h-1.52a2.12,2.12,0,0,0-1.91,1.21L223.64,207,223,202a1.78,1.78,0,0,0-1.11-1.43L215.6,198a2.09,2.09,0,0,0-2.45.7l-1.29,1.75-3,2L205.36,277h26.86Z" transform="translate(-82.95 -51.15)"/><polygon class="cls-47" points="123.42 204.64 122.41 225.9 149.27 225.9 149.38 213.25 123.42 204.64"/><polyline class="cls-48" points="139.26 150.35 137.19 155.84 128.91 149.34"/><polyline class="cls-48" points="143.4 151.83 143.4 157.15 147.3 153.31"/><path class="cls-17" d="M230.58,205.29a1.25,1.25,0,0,1,1.63-.76c2,.77,6.35,2.52,11.91,5.25,7.73,3.8,28.16,22.08,28.16,22.08l24.45-16.42,5,4.85s-21.41,27.52-31.16,29.47-25.88-9.44-25.88-9.44-1.87,19.37-4.4,31.15l4.05,13.3a110.84,110.84,0,0,1-18,6.71s.38-57.38,0-65.75C226.08,218.9,229.37,208.75,230.58,205.29Z" transform="translate(-82.95 -51.15)"/><path class="cls-49" d="M249.83,235.18c-3.33-2.73-3.87-8.24-3.87-8.24l-1.23,13.38a73.3,73.3,0,0,0,14.9,7.88C255.55,245.35,255.52,239.85,249.83,235.18Z" transform="translate(-82.95 -51.15)"/><path class="cls-46" d="M270.6,249.76c2.13-.43,4.82-2.07,7.71-4.38-6.29-4.07-14,1.26-16.69,3.49A19.12,19.12,0,0,0,270.6,249.76Z" transform="translate(-82.95 -51.15)"/><path class="cls-50" d="M273.18,232.46a4.3,4.3,0,0,1,2.32,1.48" transform="translate(-82.95 -51.15)"/><path class="cls-50" d="M272.16,232.71s.55.8,0,3.72" transform="translate(-82.95 -51.15)"/><line class="cls-51" x1="151.37" y1="366.17" x2="165.7" y2="366.17"/><line class="cls-51" x1="84.75" y1="354.29" x2="95.26" y2="359.75"/><path class="cls-52" d="M235.13,421.88h13.51c.06-13.39-.24-26.81-.77-39.8-3-6.38-7.14-14.87-10.21-19.4-5.32-7.85-2.28-20.78-8.23-30.4A161.77,161.77,0,0,0,217.28,316a533.57,533.57,0,0,0,13.3,56C227.8,382.95,235.13,421.88,235.13,421.88Z" transform="translate(-82.95 -51.15)"/><path class="cls-44" d="M222.21,275.4s-2,89.81-46.62,138.46l-9-4.56s10.26-37.75,20.54-48.26l4.7-85.64Z" transform="translate(-82.95 -51.15)"/><path class="cls-53" d="M200.1,276.29s-5,79.3-7,85.38-23.32,49.23-23.32,49.23" transform="translate(-82.95 -51.15)"/><path class="cls-44" d="M245.86,433c-3-.08-2.7-3-5.78-2.45-.29,1-.95,3.26-1.46,5a1.83,1.83,0,0,0,1.76,2.35H262c-.38-2.79-4.18-2.91-7-3.8s-6.37-4.18-6.37-4.18S248.9,433.11,245.86,433Z" transform="translate(-82.95 -51.15)"/><path class="cls-44" d="M166.95,419.73c-2.25-2-.13-4-2.8-5.62L159.78,417a1.83,1.83,0,0,0-.19,2.92L176,433.94c1.52-2.36-1.28-4.93-2.82-7.42s-2.12-7.32-2.12-7.32S169.2,421.77,166.95,419.73Z" transform="translate(-82.95 -51.15)"/><path class="cls-48" d="M223.64,207a23.39,23.39,0,0,1-.31,6.61A58.56,58.56,0,0,0,222.21,226c.08,4.56-.76,15.88-.76,15.88L220.07,273" transform="translate(-82.95 -51.15)"/><path class="cls-44" d="M221.74,184.8c-3.59-.89-2.42-5.26-1.25-5.64,1.73-.56,2.5,1.53,2.5,1.53s-.75-4.61,3.19-5.54,10.24,0,12.6-1.15,2.94-7.23-2.72-7.66-15.11,1.72-18.54,7.73S219,190.4,219,190.4A14.54,14.54,0,0,0,221.74,184.8Z" transform="translate(-82.95 -51.15)"/><line class="cls-50" x1="163.49" y1="170.51" x2="161.78" y2="189.17"/><path class="cls-50" d="M248.24,227.45s.09,6.24-3.31,10.63" transform="translate(-82.95 -51.15)"/><path class="cls-17" d="M195.86,203s8.91-2.49,13-2.49c3.58,0,10.38,14,9.53,21.17-1,8.52-2.7,43.31-5.07,51.08s-6.08,18.75-6.08,18.75a43.29,43.29,0,0,1-24.49-6.76l11.32-21.62Z" transform="translate(-82.95 -51.15)"/><path class="cls-54" d="M214.24,253.83a5.77,5.77,0,0,1-3.15-3.91,167.94,167.94,0,0,1-3.4-21.75c-.72-10.75-4.81-16.5-4.81-16.5L195.36,220l-1.27,43.06-11.32,21.62a43.29,43.29,0,0,0,24.49,6.76s3.72-11,6.08-18.75c.9-3,1.7-9.83,2.41-17.68A4.44,4.44,0,0,0,214.24,253.83Z" transform="translate(-82.95 -51.15)"/><path class="cls-55" d="M217.28,316s3.75-29.32,3.82-38.12" transform="translate(-82.95 -51.15)"/><path class="cls-56" d="M193,265.21s.74,17.7,39.86,24l4.81-5.36Z" transform="translate(-82.95 -51.15)"/><rect class="cls-57" x="228.18" y="251.19" width="5.75" height="77.73" transform="translate(314.84 -92.33) rotate(65.26)"/><circle class="cls-58" cx="294.79" cy="260.69" r="32.6" transform="translate(-164.99 96.15) rotate(-24.74)"/><circle class="cls-14" cx="294.79" cy="260.69" r="25.38" transform="translate(-164.99 96.15) rotate(-24.74)"/><path class="cls-59" d="M284.17,237.63c-.67.31-1.32.65-1.95,1v44.09a25.38,25.38,0,1,0,1.95-45.1Z" transform="translate(-82.95 -51.15)"/><path class="cls-60" d="M318.93,252.85l-45.28-6.21a25.51,25.51,0,0,0-3.84,9.56l50.25,6.89A25.21,25.21,0,0,0,318.93,252.85Z" transform="translate(-82.95 -51.15)"/><path class="cls-61" d="M317.22,272.57a25.53,25.53,0,0,0,2.1-5.34l-49.91-6.85a25.19,25.19,0,0,0,.58,5.71Z" transform="translate(-82.95 -51.15)"/><path class="cls-58" d="M257.48,273.84,191.93,304c-.29.13.17,1.73,1,3.57s1.77,3.22,2.05,3.09l65.55-30.21Z" transform="translate(-82.95 -51.15)"/><path class="cls-57" d="M241.85,281s4.51,2,5.72,5.44L237.66,291l-.88-2.31a15.67,15.67,0,0,1-5.42-2.86Z" transform="translate(-82.95 -51.15)"/><path class="cls-43" d="M232.22,278.9l3.55,2.41s4.35.17,6.5,1.94,3.59,3.67,3.29,4.1-3.21-2.7-3.21-2.7,3.12,4.31,2.62,5.11-3.5-4.1-3.5-4.1,2.49,4.73,1.73,5-3.34-4.18-3.34-4.18,1.31,3.83.8,4.19-2.32-4.11-2.32-4.11a3.81,3.81,0,0,1-4.14-2.15l-4.48-2.28Z" transform="translate(-82.95 -51.15)"/><polygon class="cls-14" points="146.73 225.14 150.11 227.59 146.94 233.07 142.85 231.39 146.73 225.14"/><path class="cls-17" d="M195.86,203c-7.52,2.7-11.74,18.68-9.37,35.1s3.8,27.69,12.92,34.79S227,283.61,227,283.61l3.6-7.21L208,258.89s1.88-1.6-.72-2.81c0,0-2.43-29.11-2.93-36.72S200.63,204.44,195.86,203Z" transform="translate(-82.95 -51.15)"/><path class="cls-46" d="M190.21,258.27c1.8,6.08,4.45,10.91,9.19,14.59l.14.11C202.38,263.32,193.52,259.38,190.21,258.27Z" transform="translate(-82.95 -51.15)"/><path class="cls-62" d="M561.2,130.53s-8.27-11.37-14.89,0c0,0,6.62-4.7,14.89,5.45,8.27-10.15,14.89-5.45,14.89-5.45C569.47,119.15,561.2,130.53,561.2,130.53Z" transform="translate(-82.95 -51.15)"/><path class="cls-62" d="M431.26,110.24s-5.11-7-9.2,0c0,0,4.09-2.9,9.2,3.37,5.11-6.27,9.2-3.37,9.2-3.37C436.37,103.22,431.26,110.24,431.26,110.24Z" transform="translate(-82.95 -51.15)"/><path class="cls-63" d="M496.37,102.71h96c14.09,0,7.79-6,0-7.49-2.48-.48-4.9-1-7-1.6a14.11,14.11,0,0,1-9.41-7.77,13.69,13.69,0,0,0-8.43-7.72,18.24,18.24,0,0,0-11.65.1,3.93,3.93,0,0,1-5.2-3.05c-1.41-8.47-5.58-24-17.21-24-10.78,0-17,16.77-19.9,27.71a21,21,0,0,1-12.71,14.22c-1.43.55-2.94,1.08-4.46,1.54C489.83,96.59,487.29,102.71,496.37,102.71Z" transform="translate(-82.95 -51.15)"/><ellipse class="cls-1" cx="505.4" cy="394.26" rx="13.4" ry="2.63"/><ellipse class="cls-1" cx="404.1" cy="385.04" rx="13.4" ry="2.63"/><rect class="cls-57" x="495.77" y="232.26" width="5.75" height="77.73" transform="matrix(0.99, -0.15, 0.15, 0.99, -117.65, 25.81)"/><circle class="cls-58" cx="488.24" cy="201.73" r="32.6" transform="matrix(0.99, -0.15, 0.15, 0.99, -107.47, 23.51)"/><circle class="cls-14" cx="488.24" cy="201.73" r="25.38" transform="translate(-107.47 23.51) rotate(-8.53)"/><path class="cls-64" d="M505.91,194.59V183.51a25.38,25.38,0,0,0-42,11.08Z" transform="translate(-82.95 -51.15)"/><path class="cls-65" d="M487.45,176.36l-18.61,41.75a25.51,25.51,0,0,0,8.11,6.35l20.64-46.33A25.21,25.21,0,0,0,487.45,176.36Z" transform="translate(-82.95 -51.15)"/><path class="cls-66" d="M505.91,183.51a25.53,25.53,0,0,0-4.54-3.51l-20.51,46a25.2,25.2,0,0,0,5.65,1Z" transform="translate(-82.95 -51.15)"/><path class="cls-58" d="M490.46,241.22l10.71,71.38c0,.31,1.71.32,3.71,0s3.59-.8,3.54-1.11l-10.71-71.38Z" transform="translate(-82.95 -51.15)"/><path class="cls-57" d="M492.78,256.73s6.07,2.06,7.26-1l2.83,18.89L495,271.48Z" transform="translate(-82.95 -51.15)"/><path class="cls-43" d="M500.27,399.43s-5,23.85-5.65,26-4.28.14-7.77-2.28c-3.87-2.69-4.6,1.31-3.76,4.17s3.9,2,6.2,5.15,4.55,5.77,7.81,4.56,1.35-2.85,3.17-7.32,10-22.82,10-22.82Z" transform="translate(-82.95 -51.15)"/><path class="cls-67" d="M500.27,399.43s-1.22,5.77-2.53,11.89c1.19,2.58,3.4,6,7.09,7.88,2.68-6.08,5.46-12.29,5.46-12.29Z" transform="translate(-82.95 -51.15)"/><path class="cls-44" d="M493.73,431.18c-2.75-.94-2.56-2.56-2.56-2.56a4.41,4.41,0,0,1,1.31-2.37,21.22,21.22,0,0,1-5.63-3.07c-3.87-2.69-4.6,1.31-3.76,4.17s3.9,2,6.2,5.15,4.55,5.77,7.81,4.56,1.35-2.85,3.17-7.32l.19-.45C498.16,429.06,495.87,431.91,493.73,431.18Z" transform="translate(-82.95 -51.15)"/><path class="cls-44" d="M535.79,278.56A211,211,0,0,0,523,307.72c-3.42,9.69-17.33,59.84-24.33,97.5,0,0,2,8.67,17.83,7.67,0,0,9.83-18.5,12.33-30.83s13.33-26.5,17.5-49.33c0,0,3.5,31.83,10,46.58s12,28,14.5,31,16.5-4.25,17.5-10.75-10.75-23.84-11.5-35-2.58-30.5-1.36-46.2c1.36-17.58-3.63-35.5-8.38-39.75Z" transform="translate(-82.95 -51.15)"/><path class="cls-68" d="M588.29,399.56a12.57,12.57,0,0,0-.81-5.27c-7-4.4-21.77-8.43-24-14.9-2.5-7.17,2-11.5,1-21s-8.33-17-8.67-31-2.88-15.21-4.51-11.33c-1.18,2.8-1.25,7.13-5,16.67,0,0,3.5,31.83,10,46.58s12,28,14.5,31S587.29,406.06,588.29,399.56Z" transform="translate(-82.95 -51.15)"/><path class="cls-69" d="M567,278.56H535.79s-.73,1.32-1.92,3.66c5.56,3.46,10.45,2,15.54,4.09,5.5,2.25,4.37,4.13,10.5,5.63,3.8.93,9-.11,13.38.55C571.63,285.74,569.31,280.59,567,278.56Z" transform="translate(-82.95 -51.15)"/><path class="cls-43" d="M572.29,229.22c5,3.25,21.83,30.67,22.5,37.25s-5.08,8.92-10,8.92-19.08-2.33-19.08-2.33l2-4.33,15.42-2.42-12.92-14S569,230.64,572.29,229.22Z" transform="translate(-82.95 -51.15)"/><path class="cls-70" d="M572.29,229.22c-3.33,1.42-2.08,23.08-2.08,23.08l6.45,7c4.43-6.77,4.07-15.87,3.51-20.47C576.92,234.06,574,230.3,572.29,229.22Z" transform="translate(-82.95 -51.15)"/><path class="cls-43" d="M546.6,201.24s-.56,4.24-1.44,5.06c-1.81,1.69-1.62,8.13-.56,8.88s4.62,1.19,4.62,1.19v10.38h11.06L556,208.18Z" transform="translate(-82.95 -51.15)"/><path class="cls-71" d="M549.23,220.72l9-3.14-1.36-5.92c-4.21,2.79-10.48,4.17-12.23,3.52,1.06.75,4.62,1.19,4.62,1.19Z" transform="translate(-82.95 -51.15)"/><path class="cls-17" d="M537.37,229.22S551.79,223.89,562,226s10.33,3.25,10.33,3.25.67,11.09,2.76,16.07a4.64,4.64,0,0,1,.37,2,52,52,0,0,1-2.13,12.31c-2.17,7-5.42,14.92-5.42,14.92s2.08,2,1,3.67-6,.75-13.75.92-19.08,2.29-21,.1,2.17-3.27,2.83-5.19.08-22.17.08-22.17Z" transform="translate(-82.95 -51.15)"/><path class="cls-72" d="M575.36,246.34a4.77,4.77,0,0,0-.3-1c-2.1-5-2.76-16.07-2.76-16.07s-.17-1.17-10.33-3.25c-4.26-.87-9.27-.44-13.66.35C548.32,226.36,557.3,246.12,575.36,246.34Z" transform="translate(-82.95 -51.15)"/><path class="cls-73" d="M583.12,266.31a12,12,0,0,0,3,2.5" transform="translate(-82.95 -51.15)"/><path class="cls-43" d="M537.37,229.22c4.54-.93,8.83,8.83,2.92,21.58S526,281.06,519,280.22s-19.5-11.71-19.5-11.71-4.92,0-4.92-2.79c0,0-3.08-4.6-1.67-5.34s2.31,1.09,5.5,1.09c1.42,0,2-2.54,2-2.54.87.45,1.42,1.66,1.26,4.13a1.74,1.74,0,0,0,1.52,1.83l11.26,1.37a2.39,2.39,0,0,0,2.3-1.2C524.65,251,530.27,230.68,537.37,229.22Z" transform="translate(-82.95 -51.15)"/><path class="cls-74" d="M570.79,410.31c2.5,3,16.5-4.25,17.5-10.75S569.45,408.26,570.79,410.31Z" transform="translate(-82.95 -51.15)"/><path class="cls-43" d="M570.79,410.31l11.31,17.09a3.07,3.07,0,0,1,.5,2c-.17,1.71-.51,5-.81,7.08-.42,2.83-2.33,8.33-.58,8.92s9.58-9.75,11.42-13.08-3.21-4.58-4.27-5.33-10.53-24.13-10.53-24.13S570.54,407.72,570.79,410.31Z" transform="translate(-82.95 -51.15)"/><path class="cls-44" d="M583.36,434.78a3.83,3.83,0,0,1-1.14-1.77c-.14,1.24-.29,2.5-.43,3.47-.42,2.83-2.33,8.33-.58,8.92s9.58-9.75,11.42-13.08-3.21-4.58-4.27-5.33C584.83,426.89,583.36,434.78,583.36,434.78Z" transform="translate(-82.95 -51.15)"/><path class="cls-75" d="M546.6,201.24s.4,7.19,4.79,10.06c0,0-3.61,4.13,1,12.31,0,0-3.63,4.88,5.78,11.56S578,233,571.73,221c0,0,4.12-3.5-4.5-10.12,0,0,2.64-13.11-11.31-15-3.69-.5-14.71-4.58-13.19,5.06.38,2.38,3,4.22,3,4.22Z" transform="translate(-82.95 -51.15)"/><path class="cls-76" d="M570.79,410.31l2,3a13.76,13.76,0,0,1,8.89-1.12c-2.09-5-3.84-9.34-3.84-9.34S570.54,407.72,570.79,410.31Z" transform="translate(-82.95 -51.15)"/><path class="cls-77" d="M602.17,152.33a28.84,28.84,0,0,0-23.36,45.74l-5.48,8.55,11.25-2.6a28.84,28.84,0,1,0,17.59-51.69Z" transform="translate(-82.95 -51.15)"/><path class="cls-14" d="M601.6,150a28.84,28.84,0,0,0-23.36,45.74l-5.48,8.55,11.25-2.6A28.84,28.84,0,1,0,601.6,150Z" transform="translate(-82.95 -51.15)"/><circle class="cls-78" cx="518.65" cy="127.68" r="14.19"/><path class="cls-78" d="M590.14,187.18a27,27,0,0,1,22.91,0" transform="translate(-82.95 -51.15)"/><path class="cls-78" d="M613.07,170.47a27,27,0,0,1-22.92,0" transform="translate(-82.95 -51.15)"/><ellipse class="cls-78" cx="518.65" cy="127.68" rx="8.25" ry="14.19"/><line class="cls-78" x1="518.65" y1="113.49" x2="518.65" y2="141.86"/><line class="cls-78" x1="532.84" y1="127.68" x2="504.47" y2="127.68"/></svg>